<svg xmlns="http://www.w3.org/2000/svg" width="60" height="60" id="linkedin">
    <path fill="#1f3264" stroke-width="10" d="M14.2 19.6H1.7c-.4 0-.8.3-.8.8v37.4c0 .4.3.8.8.8h12.4c.4 0 .8-.3.8-.8V20.3c0-.4-.3-.7-.7-.7zM13.4 57H2.5V21.1h10.9V57zM8 1.5C3.5 1.5.2 4.5.2 8.7s3.2 7.2 7.6 7.2H8c4.5 0 7.8-3 7.8-7.2-.2-4.2-3.3-7.2-7.8-7.2zm0 13c-3.7 0-6.2-2.4-6.2-5.7C1.8 5.4 4.3 3 8 3c3.6 0 6.1 2.3 6.2 5.7 0 3.4-2.5 5.8-6.2 5.8zM44.7 18.7c-5.4 0-8.5 2.3-10.5 4.6v-3c0-.4-.3-.8-.8-.8H21c-.2 0-.4.1-.5.2-.1.1-.2.3-.2.6.2 3.4 0 37 0 37.4 0 .2.1.4.2.5.1.1.3.2.5.2h12.4c.4 0 .8-.3.8-.8V36.8c0-1.3.1-2.2.4-2.8.5-1.2 2-4.1 5.7-4.1s5.5 2.6 5.5 7.7v20c0 .4.3.8.8.8H59c.4 0 .8-.3.8-.8V36.3c0-11-5.7-17.6-15.1-17.6zM58.2 57H47.3V37.7c0-5.9-2.5-9.2-7-9.2-3.2 0-5.8 1.9-7.1 5-.3.8-.5 1.8-.5 3.3V57H21.8c0-4.8.1-30.3 0-35.9h10.9v4.3c-.1.2-.1.5.1.7.1.2.4.4.7.4.4 0 .7-.3.7-.6 1.8-2.7 4.6-5.7 10.5-5.7 8.6 0 13.6 5.9 13.6 16.1V57z"></path>
</svg>